<mxfile host="Electron" modified="2023-07-28T03:07:24.528Z" agent="Mozilla/5.0 (Macintosh; Intel Mac OS X 10_15_7) AppleWebKit/537.36 (KHTML, like Gecko) draw.io/21.6.1 Chrome/112.0.5615.204 Electron/24.6.1 Safari/537.36" etag="pqiRx_EIATlc_AIw-b1_" version="21.6.1" type="device">
  <diagram name="第 1 页" id="lkhF8kGGMReA-yPW7bC2">
    <mxGraphModel dx="1191" dy="662" grid="1" gridSize="10" guides="1" tooltips="1" connect="1" arrows="1" fold="1" page="0" pageScale="1" pageWidth="1169" pageHeight="1654" math="0" shadow="0">
      <root>
        <mxCell id="0" />
        <mxCell id="1" parent="0" />
        <mxCell id="8pr7RFlPT-eMuXhzLhur-2" value="战斗" style="ellipse;whiteSpace=wrap;html=1;fontSize=16;fillColor=#f8cecc;strokeColor=#b85450;" parent="1" vertex="1">
          <mxGeometry x="120" width="120" height="80" as="geometry" />
        </mxCell>
        <mxCell id="8pr7RFlPT-eMuXhzLhur-3" value="养成" style="ellipse;whiteSpace=wrap;html=1;fontSize=16;fillColor=#d5e8d4;strokeColor=#82b366;" parent="1" vertex="1">
          <mxGeometry x="120" y="180" width="120" height="80" as="geometry" />
        </mxCell>
        <mxCell id="8pr7RFlPT-eMuXhzLhur-5" value="挑战&lt;br&gt;探索" style="text;html=1;strokeColor=none;fillColor=none;align=center;verticalAlign=middle;whiteSpace=wrap;rounded=0;fontSize=16;" parent="1" vertex="1">
          <mxGeometry x="80" y="105" width="60" height="50" as="geometry" />
        </mxCell>
        <mxCell id="8pr7RFlPT-eMuXhzLhur-8" value="&lt;font style=&quot;font-size: 14px;&quot;&gt;崩坏：星穹铁道核心玩法体验闭环&lt;/font&gt;" style="text;html=1;strokeColor=none;fillColor=none;align=center;verticalAlign=middle;whiteSpace=wrap;rounded=0;fontSize=16;" parent="1" vertex="1">
          <mxGeometry x="40" y="280" width="280" height="30" as="geometry" />
        </mxCell>
        <mxCell id="8pr7RFlPT-eMuXhzLhur-9" value="剧情&lt;br&gt;挑战类关卡" style="text;html=1;strokeColor=none;fillColor=none;align=center;verticalAlign=middle;whiteSpace=wrap;rounded=0;fontSize=16;" parent="1" vertex="1">
          <mxGeometry x="-40" y="40" width="120" height="180" as="geometry" />
        </mxCell>
        <mxCell id="8pr7RFlPT-eMuXhzLhur-18" value="产出游戏资源&lt;br&gt;提高角色练度" style="text;html=1;strokeColor=none;fillColor=none;align=center;verticalAlign=middle;whiteSpace=wrap;rounded=0;fontSize=16;" parent="1" vertex="1">
          <mxGeometry x="280" y="40" width="120" height="180" as="geometry" />
        </mxCell>
        <mxCell id="L59X16BvOSVKJPmdOeIj-1" value="" style="edgeStyle=elbowEdgeStyle;elbow=horizontal;endArrow=classic;html=1;curved=0;rounded=0;endSize=8;startSize=8;fontSize=12;entryX=0;entryY=0.5;entryDx=0;entryDy=0;exitX=0;exitY=0.5;exitDx=0;exitDy=0;" edge="1" parent="1" source="8pr7RFlPT-eMuXhzLhur-3" target="8pr7RFlPT-eMuXhzLhur-2">
          <mxGeometry width="50" height="50" relative="1" as="geometry">
            <mxPoint x="150" y="300" as="sourcePoint" />
            <mxPoint x="200" y="250" as="targetPoint" />
            <Array as="points">
              <mxPoint x="80" y="130" />
            </Array>
          </mxGeometry>
        </mxCell>
        <mxCell id="L59X16BvOSVKJPmdOeIj-2" value="" style="edgeStyle=elbowEdgeStyle;elbow=horizontal;endArrow=classic;html=1;curved=0;rounded=0;endSize=8;startSize=8;fontSize=12;entryX=1;entryY=0.5;entryDx=0;entryDy=0;" edge="1" parent="1" source="8pr7RFlPT-eMuXhzLhur-2" target="8pr7RFlPT-eMuXhzLhur-3">
          <mxGeometry width="50" height="50" relative="1" as="geometry">
            <mxPoint x="150" y="300" as="sourcePoint" />
            <mxPoint x="200" y="250" as="targetPoint" />
            <Array as="points">
              <mxPoint x="280" y="160" />
            </Array>
          </mxGeometry>
        </mxCell>
      </root>
    </mxGraphModel>
  </diagram>
</mxfile>
